<?xml version="1.0" standalone="no"?><!DOCTYPE svg PUBLIC "-//W3C//DTD SVG 1.1//EN" "http://www.w3.org/Graphics/SVG/1.1/DTD/svg11.dtd"><svg t="1630919246592" class="icon" viewBox="0 0 1024 1024" version="1.1" xmlns="http://www.w3.org/2000/svg" p-id="1589" xmlns:xlink="http://www.w3.org/1999/xlink" width="128" height="128"><defs><style type="text/css"></style></defs><path d="M308.971 657.987l150.28 165.279a16 16 0 0 0 11.838 5.236c8.837 0 16-7.163 16-16v-600.67a16 16 0 0 0-5.236-11.839c-6.538-5.944-16.657-5.463-22.602 1.075l-150.28 165.279A112 112 0 0 1 226.105 403H177c-17.673 0-32 14.327-32 32v154.333c0 17.674 14.327 32 32 32h49.105a112 112 0 0 1 82.866 36.654zM177 701.333c-61.856 0-112-50.144-112-112V435c0-61.856 50.144-112 112-112h49.105a32 32 0 0 0 23.676-10.472l150.28-165.28c35.668-39.227 96.383-42.113 135.61-6.445a96 96 0 0 1 31.418 71.028v600.671c0 53.02-42.98 96-96 96a96 96 0 0 1-71.029-31.417l-150.28-165.28a32 32 0 0 0-23.675-10.472H177z m456.058-348.336c-18.47-12.118-23.621-36.915-11.503-55.386 12.118-18.471 36.916-23.621 55.387-11.503C752.495 335.675 799 419.908 799 512c0 92.093-46.505 176.325-122.058 225.892-18.471 12.118-43.269 6.968-55.387-11.503-12.118-18.471-6.968-43.268 11.503-55.386C686.303 636.07 719 576.848 719 512c0-64.848-32.697-124.07-85.942-159.003z m92.93-137.323c-18.07-12.71-22.415-37.66-9.706-55.73s37.66-22.415 55.73-9.706C888.942 232.478 960 366.298 960 512s-71.058 279.522-187.988 361.762c-18.07 12.71-43.021 8.364-55.73-9.706-12.709-18.07-8.363-43.02 9.706-55.73C821.838 740.912 880 631.38 880 512c0-119.38-58.161-228.912-154.012-296.326z" p-id="1590" fill="#ffffff"></path></svg>