<?xml version="1.0" standalone="no"?><!DOCTYPE svg PUBLIC "-//W3C//DTD SVG 1.1//EN" "http://www.w3.org/Graphics/SVG/1.1/DTD/svg11.dtd"><svg t="1660372814997" class="icon" viewBox="0 0 1024 1024" version="1.1" xmlns="http://www.w3.org/2000/svg" p-id="3013" xmlns:xlink="http://www.w3.org/1999/xlink" width="200" height="200"><defs><style type="text/css">@font-face { font-family: feedback-iconfont; src: url("//at.alicdn.com/t/font_1031158_u69w8yhxdu.woff2?t=1630033759944") format("woff2"), url("//at.alicdn.com/t/font_1031158_u69w8yhxdu.woff?t=1630033759944") format("woff"), url("//at.alicdn.com/t/font_1031158_u69w8yhxdu.ttf?t=1630033759944") format("truetype"); }
</style></defs><path d="M721.454545 209.454545H162.909091c-65.163636 0-116.363636 51.2-116.363636 116.363637v325.818182c0 65.163636 51.2 116.363636 116.363636 116.363636h558.545454c65.163636 0 116.363636-51.2 116.363637-116.363636V325.818182c0-65.163636-51.2-116.363636-116.363637-116.363637z m69.818182 442.181819c0 39.563636-30.254545 69.818182-69.818182 69.818181H162.909091c-39.563636 0-69.818182-30.254545-69.818182-69.818181V325.818182c0-39.563636 30.254545-69.818182 69.818182-69.818182h558.545454c39.563636 0 69.818182 30.254545 69.818182 69.818182v325.818182z" p-id="3014" fill="#ffffff"></path><path d="M393.309091 316.509091c-90.763636 16.290909-204.8 109.381818-179.2 214.109091 25.6 107.054545 188.509091 148.945455 249.018182 123.345454 46.545455-18.618182-27.927273-39.563636 0-67.490909s93.090909-4.654545 153.6-23.272727c48.872727-11.636364 88.436364-90.763636 25.6-155.927273-65.163636-65.163636-160.581818-107.054545-249.018182-90.763636z m-72.145455 272.290909c-18.618182 0-34.909091-16.290909-34.909091-34.909091s16.290909-34.909091 34.909091-34.909091 34.909091 16.290909 34.909091 34.909091-16.290909 34.909091-34.909091 34.909091z m-6.981818-90.763636c-23.272727 0-41.890909-18.618182-41.890909-39.563637 0-20.945455 18.618182-39.563636 41.890909-39.563636s41.890909 18.618182 41.890909 39.563636c0 20.945455-18.618182 39.563636-41.890909 39.563637z m95.418182-67.490909c-23.272727 0-41.890909-18.618182-41.890909-39.563637 0-20.945455 18.618182-39.563636 41.890909-39.563636s41.890909 18.618182 41.890909 39.563636c0 20.945455-18.618182 39.563636-41.890909 39.563637z m65.163636-34.909091c0-18.618182 16.290909-34.909091 34.909091-34.909091s34.909091 16.290909 34.909091 34.909091-16.290909 34.909091-34.909091 34.909091-34.909091-16.290909-34.909091-34.909091z m83.781819 125.672727c-18.618182 0-34.909091-16.290909-34.909091-34.909091s16.290909-34.909091 34.909091-34.909091 34.909091 16.290909 34.90909 34.909091-16.290909 34.909091-34.90909 34.909091z" p-id="3015" fill="#ffffff"></path></svg>