<?xml version="1.0" standalone="no"?><!DOCTYPE svg PUBLIC "-//W3C//DTD SVG 1.1//EN" "http://www.w3.org/Graphics/SVG/1.1/DTD/svg11.dtd"><svg t="1660372327205" class="icon" viewBox="0 0 1024 1024" version="1.1" xmlns="http://www.w3.org/2000/svg" p-id="3048" xmlns:xlink="http://www.w3.org/1999/xlink" width="200" height="200"><defs><style type="text/css">@font-face { font-family: feedback-iconfont; src: url("//at.alicdn.com/t/font_1031158_u69w8yhxdu.woff2?t=1630033759944") format("woff2"), url("//at.alicdn.com/t/font_1031158_u69w8yhxdu.woff?t=1630033759944") format("woff"), url("//at.alicdn.com/t/font_1031158_u69w8yhxdu.ttf?t=1630033759944") format("truetype"); }
</style></defs><path d="M209.454545 349.090909h46.545455v46.545455H209.454545zM302.545455 349.090909h302.545454v46.545455H302.545455zM349.090909 465.454545h302.545455v46.545455H349.090909zM256 465.454545h46.545455v46.545455h-46.545455z" p-id="3049" fill="#18a058"></path><path d="M558.545455 721.454545H155.927273C123.345455 721.454545 93.090909 691.2 93.090909 658.618182V318.836364C93.090909 286.254545 123.345455 256 155.927273 256h572.509091c32.581818 0 62.836364 30.254545 62.836363 62.836364V349.090909c0 13.963636 9.309091 23.272727 23.272728 23.272727s23.272727-9.309091 23.272727-23.272727v-30.254545c0-58.181818-51.2-109.381818-109.381818-109.381819H155.927273C97.745455 209.454545 46.545455 260.654545 46.545455 318.836364v339.781818C46.545455 716.8 97.745455 768 155.927273 768H558.545455c13.963636 0 23.272727-9.309091 23.272727-23.272727s-9.309091-23.272727-23.272727-23.272728z" p-id="3050" fill="#18a058"></path><path d="M802.909091 465.454545c-95.418182 0-174.545455 79.127273-174.545455 174.545455s79.127273 174.545455 174.545455 174.545455 174.545455-79.127273 174.545454-174.545455-79.127273-174.545455-174.545454-174.545455z m0 302.545455c-69.818182 0-128-58.181818-128-128 0-23.272727 6.981818-44.218182 16.290909-62.836364l174.545455 174.545455c-18.618182 9.309091-39.563636 16.290909-62.836364 16.290909z m97.745454-46.545455L721.454545 542.254545c23.272727-18.618182 51.2-30.254545 81.454546-30.254545 69.818182 0 128 58.181818 128 128 0 30.254545-11.636364 60.509091-30.254546 81.454545z" p-id="3051" fill="#18a058"></path></svg>