<?xml version="1.0" standalone="no"?><!DOCTYPE svg PUBLIC "-//W3C//DTD SVG 1.1//EN" "http://www.w3.org/Graphics/SVG/1.1/DTD/svg11.dtd"><svg t="1660372332890" class="icon" viewBox="0 0 1024 1024" version="1.1" xmlns="http://www.w3.org/2000/svg" p-id="3250" xmlns:xlink="http://www.w3.org/1999/xlink" width="200" height="200"><defs><style type="text/css">@font-face { font-family: feedback-iconfont; src: url("//at.alicdn.com/t/font_1031158_u69w8yhxdu.woff2?t=1630033759944") format("woff2"), url("//at.alicdn.com/t/font_1031158_u69w8yhxdu.woff?t=1630033759944") format("woff"), url("//at.alicdn.com/t/font_1031158_u69w8yhxdu.ttf?t=1630033759944") format("truetype"); }
</style></defs><path d="M209.454545 349.090909h46.545455v46.545455H209.454545zM302.545455 349.090909h302.545454v46.545455H302.545455zM349.090909 465.454545h302.545455v46.545455H349.090909zM256 465.454545h46.545455v46.545455h-46.545455z" p-id="3251" fill="#ffffff"></path><path d="M728.436364 211.781818H155.927273c-58.181818 0-107.054545 46.545455-107.054546 107.054546v339.781818c0 58.181818 46.545455 107.054545 107.054546 107.054545h572.509091c58.181818 0 107.054545-48.872727 107.054545-107.054545V318.836364c0-58.181818-46.545455-107.054545-107.054545-107.054546z m65.163636 446.836364c0 37.236364-30.254545 65.163636-65.163636 65.163636H155.927273c-37.236364 0-65.163636-30.254545-65.163637-65.163636V318.836364c0-37.236364 30.254545-65.163636 65.163637-65.163637h572.509091c37.236364 0 65.163636 30.254545 65.163636 65.163637v339.781818z" p-id="3252" fill="#ffffff"></path></svg>